<svg width="188" height="50" viewBox="0 0 188 50" fill="none" xmlns="http://www.w3.org/2000/svg">
<mask id="mask0_95_2" style="mask-type:alpha" maskUnits="userSpaceOnUse" x="3" y="0" width="53" height="50">
<path d="M12.4398 15.6385H46.5602V49.759H12.4398V15.6385Z" fill="#AAAAAA"/>
<path d="M29.5 0L55.0477 17.8599H3.95225L29.5 0Z" fill="#AAAAAA"/>
</mask>
<g mask="url(#mask0_95_2)">
<rect x="7" y="-1" width="6.75301" height="50.8253" fill="white"/>
<rect x="16.7048" y="-1.06627" width="6.75301" height="50.8253" rx="3.37651" fill="white"/>
<rect x="26.3012" y="-6.39759" width="6.75301" height="50.8253" rx="3.37651" fill="white"/>
<rect x="35.8976" y="-13.8614" width="6.75301" height="50.8253" rx="3.37651" fill="#FFA500"/>
<rect x="45" y="-23" width="6.75301" height="50.8253" fill="white"/>
</g>
<path d="M70.68 3.08C75.192 3.08 79.896 4.256 79.896 11.528C79.896 18.824 75.192 20 70.68 20H64.44V3.08H70.68ZM70.68 16.64C73.68 16.64 76.056 16.4 76.056 11.528C76.056 6.68 73.68 6.44 70.68 6.44H68.28V16.64H70.68ZM81.8072 20V9.704C81.8072 8.384 82.5512 7.664 83.8712 7.688L91.8152 7.88V11.24L85.6472 11.096V20H81.8072ZM92.7881 13.784C92.7881 9.944 95.4041 7.64 99.1721 7.64C102.94 7.64 105.58 9.872 105.58 13.544V14.744H96.3881C96.3881 16.136 97.3961 17.12 99.5801 17.12C100.924 17.12 101.932 16.64 102.172 15.728H106.012C105.772 17.48 103.78 20.24 99.5801 20.24C94.9241 20.24 92.7881 17.216 92.7881 13.784ZM96.3881 12.584H101.98C101.98 11.672 101.308 10.76 99.1721 10.76C97.0361 10.76 96.3881 11.672 96.3881 12.584ZM107.202 16.688C107.202 14.6 108.45 13.376 112.05 12.872L115.866 12.344C115.866 11.36 115.098 10.76 113.442 10.76C111.906 10.76 111.042 11.408 111.042 12.512H107.442C107.442 9.44 110.058 7.64 113.442 7.64C116.778 7.64 119.706 9.248 119.706 13.232V16.64H121.458V20H118.794C117.642 20 116.994 19.352 116.994 18.2V17.96L117.594 16.52H116.634C116.178 18.536 115.002 20.24 111.618 20.24C107.85 20.24 107.202 17.936 107.202 16.688ZM111.042 15.968C111.042 16.664 111.714 16.88 112.362 16.88C114.474 16.88 115.866 15.992 115.866 14.504L112.77 14.936C111.618 15.104 111.042 15.272 111.042 15.968ZM139.117 7.64C142.213 7.64 143.149 10.424 143.149 13.688V20H139.309V13.952C139.309 11.648 138.925 11 137.509 11C135.421 11 134.941 12.824 134.941 15.752V20H131.101V13.952C131.101 11.648 130.717 11 129.301 11C127.213 11 126.733 12.824 126.733 15.752V20H122.893V7.88H126.733V9.104L126.013 11.264H126.973C127.453 9.104 128.557 7.64 130.909 7.64C133.189 7.64 134.149 9.152 134.509 11.264H135.205C135.685 9.104 136.765 7.64 139.117 7.64ZM64.2 34.528C64.2 29.608 67.512 25.84 72.888 25.84C77.616 25.84 80.736 28.432 81.24 32.608H77.4C77.016 30.376 75.24 29.2 72.936 29.2C69.984 29.2 68.04 31.048 68.04 34.528C68.04 38.032 69.984 39.88 72.936 39.88C75.24 39.88 77.016 38.68 77.4 36.448H81.24C80.736 40.648 77.616 43.24 72.888 43.24C67.512 43.24 64.2 39.472 64.2 34.528ZM82.4288 36.928C82.4288 32.704 85.4528 30.64 89.2688 30.64C93.0608 30.64 96.0848 32.704 96.0848 36.928C96.0848 41.176 93.0608 43.24 89.2688 43.24C85.4528 43.24 82.4288 41.176 82.4288 36.928ZM86.2688 36.928C86.2688 38.968 87.4448 39.88 89.2688 39.88C91.0688 39.88 92.2448 38.968 92.2448 36.928C92.2448 34.912 91.0688 34 89.2688 34C87.4448 34 86.2688 34.912 86.2688 36.928ZM103.288 39.88L107.752 39.64V43L101.488 43.24C100.168 43.288 99.4481 42.52 99.4481 41.2V34.24H96.5681V30.88H99.4481V28.6L103.288 27.4V30.88H107.272V34.24H103.288V39.88ZM115.194 39.88L119.658 39.64V43L113.394 43.24C112.074 43.288 111.354 42.52 111.354 41.2V34.24H108.474V30.88H111.354V28.6L115.194 27.4V30.88H119.178V34.24H115.194V39.88ZM121.101 39.688C121.101 37.6 122.349 36.376 125.949 35.872L129.765 35.344C129.765 34.36 128.997 33.76 127.341 33.76C125.805 33.76 124.941 34.408 124.941 35.512H121.341C121.341 32.44 123.957 30.64 127.341 30.64C130.677 30.64 133.605 32.248 133.605 36.232V39.64H135.357V43H132.693C131.541 43 130.893 42.352 130.893 41.2V40.96L131.493 39.52H130.533C130.077 41.536 128.901 43.24 125.517 43.24C121.749 43.24 121.101 40.936 121.101 39.688ZM124.941 38.968C124.941 39.664 125.613 39.88 126.261 39.88C128.373 39.88 129.765 38.992 129.765 37.504L126.669 37.936C125.517 38.104 124.941 38.272 124.941 38.968ZM149.546 30.88H150.602V34.24H149.786C149.426 34.24 148.994 34.24 148.658 34.456C148.802 34.648 148.994 35.2 148.994 35.848C148.994 38.128 146.858 39.568 143.522 40.696C146.282 40.528 148.85 41.248 148.85 43.816C148.85 47.392 144.65 47.8 135.65 47.8V44.44C143.498 44.44 144.986 44.32 144.986 43C144.986 41.224 140.642 42.016 136.922 42.64L136.514 40.48C139.274 40.192 141.77 39.904 143.978 39.376V38.416C139.538 40 134.858 39.352 134.858 35.368C134.858 32.176 137.882 30.64 141.698 30.64C143.546 30.64 145.226 31 146.498 31.936C147.218 31 148.466 30.88 149.546 30.88ZM141.938 37.216C144.242 37.216 145.154 36.64 145.154 35.608C145.154 34.6 144.242 34 141.938 34C139.634 34 138.698 34.6 138.698 35.608C138.698 36.64 139.634 37.216 141.938 37.216ZM151.335 36.784C151.335 32.944 153.951 30.64 157.719 30.64C161.487 30.64 164.127 32.872 164.127 36.544V37.744H154.935C154.935 39.136 155.943 40.12 158.127 40.12C159.471 40.12 160.479 39.64 160.719 38.728H164.559C164.319 40.48 162.327 43.24 158.127 43.24C153.471 43.24 151.335 40.216 151.335 36.784ZM154.935 35.584H160.527C160.527 34.672 159.855 33.76 157.719 33.76C155.583 33.76 154.935 34.672 154.935 35.584ZM177.533 39.664C177.533 41.704 176.069 43.24 171.893 43.24C167.429 43.24 165.509 41.44 165.509 38.608H169.349C169.349 39.544 169.997 40.36 172.013 40.36C173.045 40.36 173.693 40.12 173.693 39.544C173.693 38.92 173.021 38.752 171.077 38.104C168.821 37.36 166.061 36.76 166.061 34.048C166.061 31.888 168.005 30.64 171.341 30.64C175.445 30.64 177.125 32.68 177.125 35.032H173.285C173.285 34.168 172.637 33.52 171.317 33.52C170.405 33.52 169.901 33.736 169.901 34.216C169.901 34.792 171.101 35.152 173.021 35.776C175.373 36.544 177.533 37.144 177.533 39.664Z" fill="white"/>
</svg>
