<svg width="417" height="507" viewBox="0 0 417 507" fill="none" xmlns="http://www.w3.org/2000/svg">
<path d="M0 20C0 8.9543 8.95431 0 20 0H397C408.046 0 417 8.95431 417 20V487C417 498.046 408.046 507 397 507H20C8.95432 507 0 498.046 0 487V20Z" fill="#CCCCCC" fill-opacity="0.3"/>
<path fill-rule="evenodd" clip-rule="evenodd" d="M397 3H20C10.6112 3 3 10.6112 3 20V487C3 496.389 10.6112 504 20 504H397C406.389 504 414 496.389 414 487V20C414 10.6112 406.389 3 397 3ZM20 0C8.9543 0 0 8.9543 0 20V487C0 498.046 8.95431 507 20 507H397C408.046 507 417 498.046 417 487V20C417 8.95431 408.046 0 397 0H20Z" fill="black"/>
<path fill-rule="evenodd" clip-rule="evenodd" d="M360 50L57 50L57 38L360 38L360 50Z" fill="black"/>
<path fill-rule="evenodd" clip-rule="evenodd" d="M360 455L57 455L57 443L360 443L360 455Z" fill="black"/>
<path fill-rule="evenodd" clip-rule="evenodd" d="M202 230L202 50L214 50L214 230L202 230Z" fill="black"/>
<path fill-rule="evenodd" clip-rule="evenodd" d="M57 80L57 50L69 50L69 80L57 80Z" fill="black"/>
<path fill-rule="evenodd" clip-rule="evenodd" d="M57 360L57 142L69 142L69 360L57 360Z" fill="black"/>
<path fill-rule="evenodd" clip-rule="evenodd" d="M202 283H69V271H202V283Z" fill="black"/>
<path fill-rule="evenodd" clip-rule="evenodd" d="M202 290L202 265L214 265L214 290L202 290Z" fill="black"/>
<path fill-rule="evenodd" clip-rule="evenodd" d="M259 346L245 346L245 334L259 334L259 346Z" fill="black"/>
<path fill-rule="evenodd" clip-rule="evenodd" d="M57 443L57 422L69 422L69 443L57 443Z" fill="black"/>
<path fill-rule="evenodd" clip-rule="evenodd" d="M348 121L348 50L360 50L360 121L348 121Z" fill="black"/>
<path fill-rule="evenodd" clip-rule="evenodd" d="M348 315L348 183L360 183L360 315L348 315Z" fill="black"/>
<path fill-rule="evenodd" clip-rule="evenodd" d="M348 219L276 219L276 207L348 207L348 219Z" fill="black"/>
<path fill-rule="evenodd" clip-rule="evenodd" d="M241 219L214 219L214 207L241 207L241 219Z" fill="black"/>
<path fill-rule="evenodd" clip-rule="evenodd" d="M348 443L348 378L360 378L360 443L348 443Z" fill="black"/>
<path fill-rule="evenodd" clip-rule="evenodd" d="M247 443L247 346L259 346L259 443L247 443Z" fill="black"/>
<path fill-rule="evenodd" clip-rule="evenodd" d="M202 443L202 326L214 326L214 443L202 443Z" fill="black"/>
<path fill-rule="evenodd" clip-rule="evenodd" d="M354 183L354 121L355 121L355 183L354 183Z" fill="black"/>
<path fill-rule="evenodd" clip-rule="evenodd" d="M62 142L62 80L63 80L63 142L62 142Z" fill="black"/>
<path fill-rule="evenodd" clip-rule="evenodd" d="M62 422L62 360L63 360L63 422L62 422Z" fill="black"/>
<path fill-rule="evenodd" clip-rule="evenodd" d="M354 378L354 315L355 315L355 378L354 378Z" fill="black"/>
<path fill-rule="evenodd" clip-rule="evenodd" d="M227.971 319.394L211 290L211.866 289.5L228.837 318.894L227.971 319.394Z" fill="black"/>
<path fill-rule="evenodd" clip-rule="evenodd" d="M212 265.394L228.971 236L229.837 236.5L212.866 265.894L212 265.394Z" fill="black"/>
<path fill-rule="evenodd" clip-rule="evenodd" d="M248 232.971L277.394 216L277.894 216.866L248.5 233.837L248 232.971Z" fill="black"/>
<path fill-rule="evenodd" clip-rule="evenodd" d="M246 345L220 360L219.5 359.134L245.5 344.134L246 345Z" fill="black"/>
</svg>
