<svg width="417" height="507" viewBox="0 0 417 507" fill="none" xmlns="http://www.w3.org/2000/svg">
<path d="M415 2L415 450" stroke="black" stroke-width="4" stroke-linecap="round"/>
<path d="M2 57L3.00002 505" stroke="black" stroke-width="4" stroke-linecap="round"/>
<path d="M41 2L415 2.00004" stroke="black" stroke-width="4" stroke-linecap="round"/>
<path d="M3 505L342 505" stroke="black" stroke-width="4" stroke-linecap="round"/>
<path d="M342 505L415 451" stroke="black" stroke-width="4" stroke-linecap="round"/>
<path d="M2 57L41 2" stroke="black" stroke-width="4" stroke-linecap="round"/>
<path fill-rule="evenodd" clip-rule="evenodd" d="M360 50L57 50L57 38L360 38L360 50Z" fill="black"/>
<path fill-rule="evenodd" clip-rule="evenodd" d="M360 455L57 455L57 443L360 443L360 455Z" fill="black"/>
<path fill-rule="evenodd" clip-rule="evenodd" d="M202 230L202 50L214 50L214 230L202 230Z" fill="black"/>
<path fill-rule="evenodd" clip-rule="evenodd" d="M57 80L57 50L69 50L69 80L57 80Z" fill="black"/>
<path fill-rule="evenodd" clip-rule="evenodd" d="M57 360L57 142L69 142L69 360L57 360Z" fill="black"/>
<path fill-rule="evenodd" clip-rule="evenodd" d="M202 283H69V271H202V283Z" fill="black"/>
<path fill-rule="evenodd" clip-rule="evenodd" d="M202 290L202 265L214 265L214 290L202 290Z" fill="black"/>
<path fill-rule="evenodd" clip-rule="evenodd" d="M259 346L245 346L245 334L259 334L259 346Z" fill="black"/>
<path fill-rule="evenodd" clip-rule="evenodd" d="M57 443L57 422L69 422L69 443L57 443Z" fill="black"/>
<path fill-rule="evenodd" clip-rule="evenodd" d="M348 121L348 50L360 50L360 121L348 121Z" fill="black"/>
<path fill-rule="evenodd" clip-rule="evenodd" d="M348 315L348 183L360 183L360 315L348 315Z" fill="black"/>
<path fill-rule="evenodd" clip-rule="evenodd" d="M348 219L276 219L276 207L348 207L348 219Z" fill="black"/>
<path fill-rule="evenodd" clip-rule="evenodd" d="M241 219L214 219L214 207L241 207L241 219Z" fill="black"/>
<path fill-rule="evenodd" clip-rule="evenodd" d="M348 443L348 378L360 378L360 443L348 443Z" fill="black"/>
<path fill-rule="evenodd" clip-rule="evenodd" d="M247 443L247 346L259 346L259 443L247 443Z" fill="black"/>
<path fill-rule="evenodd" clip-rule="evenodd" d="M202 443L202 326L214 326L214 443L202 443Z" fill="black"/>
<path fill-rule="evenodd" clip-rule="evenodd" d="M354 183L354 121L355 121L355 183L354 183Z" fill="black"/>
<path fill-rule="evenodd" clip-rule="evenodd" d="M62 142L62 80L63 80L63 142L62 142Z" fill="black"/>
<path fill-rule="evenodd" clip-rule="evenodd" d="M62 422L62 360L63 360L63 422L62 422Z" fill="black"/>
<path fill-rule="evenodd" clip-rule="evenodd" d="M354 378L354 315L355 315L355 378L354 378Z" fill="black"/>
<path fill-rule="evenodd" clip-rule="evenodd" d="M227.971 319.394L211 290L211.866 289.5L228.837 318.894L227.971 319.394Z" fill="black"/>
<path fill-rule="evenodd" clip-rule="evenodd" d="M212 265.394L228.971 236L229.837 236.5L212.866 265.894L212 265.394Z" fill="black"/>
<path fill-rule="evenodd" clip-rule="evenodd" d="M248 232.971L277.394 216L277.894 216.866L248.5 233.837L248 232.971Z" fill="black"/>
<path fill-rule="evenodd" clip-rule="evenodd" d="M246 345L220 360L219.5 359.134L245.5 344.134L246 345Z" fill="black"/>
</svg>
