<svg width="447" height="375" viewBox="0 0 447 375" fill="none" xmlns="http://www.w3.org/2000/svg">
<path fill-rule="evenodd" clip-rule="evenodd" d="M42.6353 200C44.8444 200 46.6353 201.791 46.6353 204L46.6353 371C46.6353 373.209 44.8444 375 42.6353 375C40.4261 375 38.6353 373.209 38.6353 371L38.6353 204C38.6353 201.791 40.4261 200 42.6353 200Z" fill="black"/>
<path fill-rule="evenodd" clip-rule="evenodd" d="M40.2245 54.0436C42.4096 54.369 43.9171 56.4041 43.5917 58.5892L22.5917 199.589C22.2662 201.774 20.2311 203.282 18.0461 202.956C15.861 202.631 14.3535 200.596 14.6789 198.411L35.6789 57.4107C36.0044 55.2256 38.0395 53.7181 40.2245 54.0436Z" fill="black"/>
<path fill-rule="evenodd" clip-rule="evenodd" d="M41.6353 210C41.6353 212.209 39.8444 214 37.6353 214L5.63525 214C3.42611 214 1.63525 212.209 1.63525 210C1.63525 207.791 3.42611 206 5.63525 206L37.6353 206C39.8444 206 41.6353 207.791 41.6353 210Z" fill="black"/>
<path fill-rule="evenodd" clip-rule="evenodd" d="M443.635 211C443.635 213.209 441.844 215 439.635 215L402.635 215C400.426 215 398.635 213.209 398.635 211C398.635 208.791 400.426 207 402.635 207L439.635 207C441.844 207 443.635 208.791 443.635 211Z" fill="black"/>
<path fill-rule="evenodd" clip-rule="evenodd" d="M225.7 25.4294C227.12 27.122 226.898 29.645 225.206 31.0646L8.20573 213.065C6.5131 214.484 3.99013 214.263 2.57051 212.57C1.15089 210.878 1.37221 208.355 3.06483 206.935L220.065 24.9351C221.757 23.5154 224.28 23.7368 225.7 25.4294Z" fill="black"/>
<path fill-rule="evenodd" clip-rule="evenodd" d="M220.578 25.4211C222.002 23.7323 224.525 23.5178 226.214 24.942L443.214 207.942C444.903 209.366 445.117 211.89 443.693 213.579C442.269 215.267 439.745 215.482 438.057 214.058L221.057 31.0576C219.368 29.6334 219.153 27.1099 220.578 25.4211Z" fill="black"/>
<path fill-rule="evenodd" clip-rule="evenodd" d="M399.878 54.0724C402.047 53.6541 404.145 55.0734 404.563 57.2426L431.563 197.243C431.981 199.412 430.562 201.509 428.393 201.928C426.224 202.346 424.126 200.927 423.708 198.758L396.708 58.7575C396.289 56.5883 397.709 54.4908 399.878 54.0724Z" fill="black"/>
<path fill-rule="evenodd" clip-rule="evenodd" d="M404.635 58C404.635 60.2091 402.844 62 400.635 62L260.635 62C258.426 62 256.635 60.2091 256.635 58C256.635 55.7908 258.426 54 260.635 54L400.635 54C402.844 54 404.635 55.7909 404.635 58Z" fill="black"/>
<path fill-rule="evenodd" clip-rule="evenodd" d="M103.635 58C103.635 60.2091 101.844 62 99.6353 62L39.6353 62C37.4261 62 35.6353 60.2091 35.6353 58C35.6353 55.7909 37.4261 54 39.6353 54L99.6353 54C101.844 54 103.635 55.7909 103.635 58Z" fill="black"/>
<path fill-rule="evenodd" clip-rule="evenodd" d="M189.635 58C189.635 60.2091 187.844 62 185.635 62L142.635 62C140.426 62 138.635 60.2091 138.635 58C138.635 55.7909 140.426 54 142.635 54L185.635 54C187.844 54 189.635 55.7909 189.635 58Z" fill="black"/>
<path fill-rule="evenodd" clip-rule="evenodd" d="M151.635 4C151.635 6.20914 149.844 8 147.635 8L95.6353 8C93.4261 8 91.6353 6.20914 91.6353 4C91.6353 1.79086 93.4261 0 95.6353 0L147.635 0C149.844 0 151.635 1.79086 151.635 4Z" fill="black"/>
<path fill-rule="evenodd" clip-rule="evenodd" d="M95.6353 1C97.8444 1 99.6353 2.79086 99.6353 5V34C99.6353 36.2091 97.8444 38 95.6353 38C93.4261 38 91.6353 36.2091 91.6353 34V5C91.6353 2.79086 93.4261 1 95.6353 1Z" fill="black"/>
<path fill-rule="evenodd" clip-rule="evenodd" d="M147.635 1C149.844 1 151.635 2.79086 151.635 5L151.635 33C151.635 35.2091 149.844 37 147.635 37C145.426 37 143.635 35.2091 143.635 33L143.635 5C143.635 2.79086 145.426 1 147.635 1Z" fill="black"/>
<path fill-rule="evenodd" clip-rule="evenodd" d="M142.635 29C144.844 29 146.635 30.7909 146.635 33L146.635 57C146.635 59.2091 144.844 61 142.635 61C140.426 61 138.635 59.2091 138.635 57L138.635 33C138.635 30.7909 140.426 29 142.635 29Z" fill="black"/>
<path fill-rule="evenodd" clip-rule="evenodd" d="M100.635 29C102.844 29 104.635 30.7909 104.635 33L104.635 57C104.635 59.2091 102.844 61 100.635 61C98.4261 61 96.6353 59.2091 96.6353 57L96.6353 33C96.6353 30.7909 98.4261 29 100.635 29Z" fill="black"/>
<path fill-rule="evenodd" clip-rule="evenodd" d="M220.566 55.412C221.443 56.4784 221.29 58.0538 220.223 58.9309L34.2233 211.931C33.157 212.808 31.5816 212.655 30.7044 211.588C29.8273 210.522 29.9807 208.947 31.047 208.069L217.047 55.0695C218.113 54.1924 219.689 54.3457 220.566 55.412Z" fill="black"/>
<path fill-rule="evenodd" clip-rule="evenodd" d="M144.135 32C144.135 33.3807 143.016 34.5 141.635 34.5L101.635 34.5C100.255 34.5 99.1353 33.3807 99.1353 32C99.1353 30.6193 100.255 29.5 101.635 29.5L141.635 29.5C143.016 29.5 144.135 30.6193 144.135 32Z" fill="black"/>
<path fill-rule="evenodd" clip-rule="evenodd" d="M101.635 99.5C100.255 99.5 99.1353 98.3807 99.1353 97L99.1353 57C99.1353 55.6193 100.255 54.5 101.635 54.5C103.016 54.5 104.135 55.6193 104.135 57L104.135 97C104.135 98.3807 103.016 99.5 101.635 99.5Z" fill="black"/>
<path fill-rule="evenodd" clip-rule="evenodd" d="M269.635 368.5C268.807 368.5 268.135 367.828 268.135 367L268.135 229C268.135 228.172 268.807 227.5 269.635 227.5C270.464 227.5 271.135 228.172 271.135 229L271.135 367C271.135 367.828 270.464 368.5 269.635 368.5Z" fill="black"/>
<path fill-rule="evenodd" clip-rule="evenodd" d="M349.635 368.5C348.807 368.5 348.135 367.828 348.135 367L348.135 229C348.135 228.172 348.807 227.5 349.635 227.5C350.464 227.5 351.135 228.172 351.135 229L351.135 367C351.135 367.828 350.464 368.5 349.635 368.5Z" fill="black"/>
<path fill-rule="evenodd" clip-rule="evenodd" d="M268.135 229C268.135 228.172 268.807 227.5 269.635 227.5H349.635C350.464 227.5 351.135 228.172 351.135 229C351.135 229.828 350.464 230.5 349.635 230.5H269.635C268.807 230.5 268.135 229.828 268.135 229Z" fill="black"/>
<path fill-rule="evenodd" clip-rule="evenodd" d="M183.135 111C183.135 110.172 183.807 109.5 184.635 109.5L261.635 109.5C262.464 109.5 263.135 110.172 263.135 111C263.135 111.828 262.464 112.5 261.635 112.5L184.635 112.5C183.807 112.5 183.135 111.828 183.135 111Z" fill="black"/>
<path fill-rule="evenodd" clip-rule="evenodd" d="M183.135 174C183.135 173.172 183.807 172.5 184.635 172.5L261.635 172.5C262.464 172.5 263.135 173.172 263.135 174C263.135 174.828 262.464 175.5 261.635 175.5L184.635 175.5C183.807 175.5 183.135 174.828 183.135 174Z" fill="black"/>
<path fill-rule="evenodd" clip-rule="evenodd" d="M104.135 322C104.135 321.172 104.807 320.5 105.635 320.5L233.635 320.5C234.464 320.5 235.135 321.172 235.135 322C235.135 322.828 234.464 323.5 233.635 323.5L105.635 323.5C104.807 323.5 104.135 322.828 104.135 322Z" fill="black"/>
<path fill-rule="evenodd" clip-rule="evenodd" d="M104.135 227C104.135 226.172 104.807 225.5 105.635 225.5L233.635 225.5C234.464 225.5 235.135 226.172 235.135 227C235.135 227.828 234.464 228.5 233.635 228.5L105.635 228.5C104.807 228.5 104.135 227.828 104.135 227Z" fill="black"/>
<path fill-rule="evenodd" clip-rule="evenodd" d="M233.635 323.5C232.807 323.5 232.135 322.828 232.135 322L232.135 227C232.135 226.172 232.807 225.5 233.635 225.5C234.464 225.5 235.135 226.172 235.135 227L235.135 322C235.135 322.828 234.464 323.5 233.635 323.5Z" fill="black"/>
<path fill-rule="evenodd" clip-rule="evenodd" d="M105.635 323.5C104.807 323.5 104.135 322.828 104.135 322L104.135 227C104.135 226.172 104.807 225.5 105.635 225.5C106.464 225.5 107.135 226.172 107.135 227L107.135 322C107.135 322.828 106.464 323.5 105.635 323.5Z" fill="black"/>
<path fill-rule="evenodd" clip-rule="evenodd" d="M117.635 312.5C116.807 312.5 116.135 311.828 116.135 311L116.135 238C116.135 237.172 116.807 236.5 117.635 236.5C118.464 236.5 119.135 237.172 119.135 238L119.135 311C119.135 311.828 118.464 312.5 117.635 312.5Z" fill="black"/>
<path fill-rule="evenodd" clip-rule="evenodd" d="M224.635 312.5C223.807 312.5 223.135 311.828 223.135 311L223.135 238C223.135 237.172 223.807 236.5 224.635 236.5C225.464 236.5 226.135 237.172 226.135 238L226.135 311C226.135 311.828 225.464 312.5 224.635 312.5Z" fill="black"/>
<path fill-rule="evenodd" clip-rule="evenodd" d="M116.135 238C116.135 237.172 116.807 236.5 117.635 236.5H224.635C225.464 236.5 226.135 237.172 226.135 238C226.135 238.828 225.464 239.5 224.635 239.5H117.635C116.807 239.5 116.135 238.828 116.135 238Z" fill="black"/>
<path fill-rule="evenodd" clip-rule="evenodd" d="M116.135 311C116.135 310.172 116.807 309.5 117.635 309.5H224.635C225.464 309.5 226.135 310.172 226.135 311C226.135 311.828 225.464 312.5 224.635 312.5H117.635C116.807 312.5 116.135 311.828 116.135 311Z" fill="black"/>
<path fill-rule="evenodd" clip-rule="evenodd" d="M261.635 109.5C262.464 109.5 263.135 110.172 263.135 111L263.135 174C263.135 174.828 262.464 175.5 261.635 175.5C260.807 175.5 260.135 174.828 260.135 174L260.135 111C260.135 110.172 260.807 109.5 261.635 109.5Z" fill="black"/>
<path fill-rule="evenodd" clip-rule="evenodd" d="M184.635 109.5C185.464 109.5 186.135 110.172 186.135 111L186.135 174C186.135 174.828 185.464 175.5 184.635 175.5C183.807 175.5 183.135 174.828 183.135 174L183.135 111C183.135 110.172 183.807 109.5 184.635 109.5Z" fill="black"/>
<path fill-rule="evenodd" clip-rule="evenodd" d="M192.635 116.5C193.464 116.5 194.135 117.172 194.135 118L194.135 168C194.135 168.828 193.464 169.5 192.635 169.5C191.807 169.5 191.135 168.828 191.135 168L191.135 118C191.135 117.172 191.807 116.5 192.635 116.5Z" fill="black"/>
<path fill-rule="evenodd" clip-rule="evenodd" d="M253.635 116.5C254.464 116.5 255.135 117.172 255.135 118L255.135 168C255.135 168.828 254.464 169.5 253.635 169.5C252.807 169.5 252.135 168.828 252.135 168L252.135 118C252.135 117.172 252.807 116.5 253.635 116.5Z" fill="black"/>
<path fill-rule="evenodd" clip-rule="evenodd" d="M255.135 118C255.135 118.828 254.464 119.5 253.635 119.5L192.635 119.5C191.807 119.5 191.135 118.828 191.135 118C191.135 117.172 191.807 116.5 192.635 116.5L253.635 116.5C254.464 116.5 255.135 117.172 255.135 118Z" fill="black"/>
<path fill-rule="evenodd" clip-rule="evenodd" d="M255.135 168C255.135 168.828 254.464 169.5 253.635 169.5H192.635C191.807 169.5 191.135 168.828 191.135 168C191.135 167.172 191.807 166.5 192.635 166.5H253.635C254.464 166.5 255.135 167.172 255.135 168Z" fill="black"/>
<path fill-rule="evenodd" clip-rule="evenodd" d="M216.687 55.433C217.552 54.3571 219.126 54.1863 220.202 55.0516L409.202 207.052C410.278 207.917 410.449 209.491 409.583 210.567C408.718 211.642 407.144 211.813 406.069 210.948L217.069 58.9479C215.993 58.0826 215.822 56.5089 216.687 55.433Z" fill="black"/>
<path fill-rule="evenodd" clip-rule="evenodd" d="M398.635 200C400.844 200 402.635 201.791 402.635 204L402.635 371C402.635 373.209 400.844 375 398.635 375C396.426 375 394.635 373.209 394.635 371L394.635 204C394.635 201.791 396.426 200 398.635 200Z" fill="black"/>
<path fill-rule="evenodd" clip-rule="evenodd" d="M38.6353 371C38.6353 368.791 40.4261 367 42.6353 367H398.635C400.844 367 402.635 368.791 402.635 371C402.635 373.209 400.844 375 398.635 375H42.6353C40.4261 375 38.6353 373.209 38.6353 371Z" fill="black"/>
<path fill-rule="evenodd" clip-rule="evenodd" d="M277.635 367.002V236H278.635V367.002H277.635Z" fill="black"/>
<path fill-rule="evenodd" clip-rule="evenodd" d="M146.635 311L146.635 238L147.635 238L147.635 311L146.635 311Z" fill="black"/>
<path fill-rule="evenodd" clip-rule="evenodd" d="M189.635 311L189.635 238L190.635 238L190.635 311L189.635 311Z" fill="black"/>
<path fill-rule="evenodd" clip-rule="evenodd" d="M341.635 236L277.635 236V235L341.635 235V236Z" fill="black"/>
<path fill-rule="evenodd" clip-rule="evenodd" d="M253.635 143L192.635 143V142L253.635 142V143Z" fill="black"/>
<path fill-rule="evenodd" clip-rule="evenodd" d="M222.635 168L222.635 118L223.635 118L223.635 168L222.635 168Z" fill="black"/>
<path fill-rule="evenodd" clip-rule="evenodd" d="M340.635 367.003V236H341.635V367.003H340.635Z" fill="black"/>
<path fill-rule="evenodd" clip-rule="evenodd" d="M333.559 304.085C334.207 302.707 334.635 300.734 334.635 298.5C334.635 296.266 334.207 294.293 333.559 292.915C332.874 291.459 332.125 291 331.635 291C331.146 291 330.397 291.459 329.712 292.915C329.063 294.293 328.635 296.266 328.635 298.5C328.635 300.734 329.063 302.707 329.712 304.085C330.397 305.541 331.146 306 331.635 306C332.125 306 332.874 305.541 333.559 304.085ZM331.635 307C333.844 307 335.635 303.194 335.635 298.5C335.635 293.806 333.844 290 331.635 290C329.426 290 327.635 293.806 327.635 298.5C327.635 303.194 329.426 307 331.635 307Z" fill="black"/>
</svg>
