<svg width="432" height="444" viewBox="0 0 432 444" fill="none" xmlns="http://www.w3.org/2000/svg">
<path d="M353 59H422M244 59H313" stroke="black" stroke-width="4" stroke-linecap="round"/>
<path d="M244 234L422 234" stroke="black" stroke-width="4" stroke-linecap="round"/>
<path d="M422 59V234" stroke="black" stroke-width="4" stroke-linecap="round"/>
<path d="M244 59V234" stroke="black" stroke-width="4" stroke-linecap="round"/>
<path d="M265.991 117.161H400.091" stroke="black" stroke-width="4" stroke-linecap="round"/>
<path d="M265.991 142.388H400.091" stroke="black" stroke-width="4" stroke-linecap="round"/>
<path d="M265.991 167.614H400.091" stroke="black" stroke-width="4" stroke-linecap="round"/>
<path d="M266.571 192.999H400.671" stroke="black" stroke-width="4" stroke-linecap="round"/>
<circle cx="332.957" cy="58.8989" r="19.8989" stroke="black" stroke-width="8"/>
<circle cx="136.943" cy="273.943" r="95" transform="rotate(16.3876 136.943 273.943)" stroke="black" stroke-width="8"/>
<circle cx="136.943" cy="273.943" r="78" transform="rotate(16.3876 136.943 273.943)" stroke="black" stroke-width="8"/>
<path d="M256 287L411 332" stroke="black" stroke-width="8" stroke-linecap="round"/>
<path d="M256 287L243 326" stroke="black" stroke-width="8" stroke-linecap="round"/>
<path d="M411 333L398 372" stroke="black" stroke-width="8" stroke-linecap="round"/>
<path d="M243 326L398 372" stroke="black" stroke-width="8" stroke-linecap="round"/>
<line x1="232.711" y1="288.557" x2="252.858" y2="294.481" stroke="black" stroke-width="8"/>
<line x1="224.811" y1="315.419" x2="244.958" y2="321.344" stroke="black" stroke-width="8"/>
<path d="M169.222 238.615L181.807 263.163" stroke="black" stroke-width="8" stroke-linecap="round"/>
<path d="M164.144 255.884L182.147 290.364" stroke="black" stroke-width="8" stroke-linecap="round"/>
<path d="M2 2L2 134" stroke="black" stroke-width="4" stroke-linecap="round"/>
<path d="M136 2L136 97" stroke="black" stroke-width="4" stroke-linecap="round"/>
<path d="M136 2L2 2" stroke="black" stroke-width="4" stroke-linecap="round"/>
<path d="M99 134H2" stroke="black" stroke-width="4" stroke-linecap="round"/>
<path d="M99 97L99 133" stroke="black" stroke-width="4" stroke-linecap="round"/>
<path d="M99 97L136 97" stroke="black" stroke-width="4" stroke-linecap="round"/>
<path d="M99 134L136 97" stroke="black" stroke-width="4" stroke-linecap="round"/>
<path d="M17 46H120" stroke="black" stroke-width="4" stroke-linecap="round"/>
<path d="M17 65H120" stroke="black" stroke-width="4" stroke-linecap="round"/>
<path d="M17 84H120" stroke="black" stroke-width="4" stroke-linecap="round"/>
<path d="M17 103H71" stroke="black" stroke-width="4" stroke-linecap="round"/>
<path d="M229 157L229 385" stroke="black" stroke-width="3" stroke-linecap="round"/>
<path d="M229 157L28 157" stroke="black" stroke-width="3" stroke-linecap="round"/>
<path d="M28 157L28 385" stroke="black" stroke-width="3" stroke-linecap="round"/>
<path d="M28 385H229" stroke="black" stroke-width="3" stroke-linecap="round"/>
<path d="M82 255L188 255" stroke="black" stroke-width="4" stroke-linecap="round"/>
<path d="M96 328L176 328" stroke="black" stroke-width="4" stroke-linecap="round"/>
<path d="M176 256L176 328" stroke="black" stroke-width="4" stroke-linecap="round"/>
<path d="M149 281L149 303" stroke="black" stroke-width="4" stroke-linecap="round"/>
<path d="M123 281L123 303" stroke="black" stroke-width="4" stroke-linecap="round"/>
<path d="M149 281H123" stroke="black" stroke-width="4" stroke-linecap="round"/>
<path d="M149 303H123" stroke="black" stroke-width="4" stroke-linecap="round"/>
<path d="M96 256L96 328" stroke="black" stroke-width="4" stroke-linecap="round"/>
<path d="M136 209L189 255" stroke="black" stroke-width="4" stroke-linecap="round"/>
<path d="M135.624 209L82 255" stroke="black" stroke-width="4" stroke-linecap="round"/>
</svg>
